<?xml version="1.0" encoding="utf-8"?>
<!-- Generator: Adobe Illustrator 27.5.0, SVG Export Plug-In . SVG Version: 6.00 Build 0)  -->
<svg version="1.1" id="Layer_1" xmlns="http://www.w3.org/2000/svg" xmlns:xlink="http://www.w3.org/1999/xlink" x="0px" y="0px"
	 viewBox="0 0 1920 2500" style="enable-background:new 0 0 1920 2500;" xml:space="preserve">
<style type="text/css">
	.st0{fill:#FFFFFF;}
</style>
<g>
	<path d="M1332.6,1351.39l5.77,0.32c-9.68,10.58-26.45,16.07-49.86,16.31l-79.07,0.69l-1.17,0c-30.59,0-44.92-9.89-51.55-18.18
		l-1.05-1.31l-1.47,0.8c-3.43,1.87-7.43,2.89-11.56,2.93l-30.64,0.28c-7.65,0-15.22-4.05-18.85-10.07l-1.2-1.99l-1.79,1.48
		c-10.77,8.92-25.48,13.92-41.43,14.06h-0.62c-2.93-0.25-75.81-6.58-76.95-6.68l-0.09-0.01h-0.09
		c-22.27-0.02-38.13-11.35-43.51-31.1l-0.83-3.06l-2.4,2.07c-11.41,9.84-27.78,11.32-43.76,11.45l-0.61,0.02
		c-3.13-0.27-64.92-5.63-70.94-6.17l-2.45-0.22l0.28,2.44c1.4,12.07,5.7,48.87,5.92,50.81l0.03,0.71l0,0.51
		c-0.05,4.62-1.84,9.01-5.03,12.34c-2.71,2.84-7.68,6.25-16.06,6.34l-30.38,0.22c-0.48,0-0.97,0.01-1.43,0.07l0.05-0.06l-0.39,0
		c-11.56,0-20.48-7.92-20.75-18.43l-0.02-0.35c0.01-0.85,0.14-10.01,0.37-23.9l0.06-3.88l-3.2,2.2
		c-9.35,6.44-20.9,10.07-32.52,10.21l-70.91,4l-0.31,0.05c-15.89,0-27.55-7-34.54-12.86l-3.12-2.62l-0.17,4.07
		c-0.17,4.08-1.85,8-4.74,11.05c-3.97,4.22-10.07,6.68-16.76,6.76c-0.36,0-35.22,0.29-38.43,0.31l-0.41,0
		c-9.98,0-20.66-6.6-21.26-17.64l-0.12-2.14l-2.13,0.26c-1.35,0.17-2.47,0.25-3.52,0.26c0,0-30.21,0.29-30.5,0.29
		c-1.34,0-2.69-0.11-4-0.33l-2.27-0.38l-0.06,2.3c-0.11,4.18-1.79,8.21-4.73,11.36c-3.86,4.1-9.79,6.61-15.86,6.71l-0.23,0.01
		c-4.7-0.1-194.1-4.23-195.35-4.27l-0.81,0c-33.71,0-56.7-14.91-57.21-37.09l-5.89-245.77c-0.01-0.31-0.01-0.53-0.01-0.77
		c0.04-4.42,1.71-8.6,4.68-11.75c3.18-2.72,46.43-16.32,73.14-24.31l2.07-0.02c11.77,0,20.54,7.42,20.87,17.65l0,0.86
		c-0.18,1.84-2.93,29.53-6.39,64.63l-0.41,4.2l3.51-2.34c11.01-7.33,26.39-11.27,44.48-11.41l0.6-0.02
		c4.06,0.32,65.82,5.26,66.92,5.33l0.14,0l0.42,0c16.93,0,31.64,3.38,42.52,9.77l3.19,1.87l-1.78-36.96l0-0.74
		c0.06-4.28,1.75-8.4,4.76-11.58c3.28-3.48,8.18-5.72,13.79-6.31l0.14-0.02l0.14-0.04c1.05-0.27,36.1-8.65,39.24-9.4l1.7-0.01
		c14.57,0,21.47,9.42,21.72,18.18c0,0.02,0.15,12.75,0.4,32.31l0.03,2.51l2.44-0.6c1.98-0.48,3.92-0.73,5.79-0.74l0.6-0.02
		l36.5,2.68l0-0.02c14.09,0.36,20.67,9.24,20.94,17.91l0,0.25c0,0.02,0.21,17.93,0.45,43.17l0.04,3.69l3.07-2.04
		c9.78-6.5,22.68-10.09,37.31-10.38l0.16,0l0.16-0.03c0.56-0.07,15.68-1.63,41.4-4.28l1.96-0.2l-0.17-1.96
		c-0.1-1.13-0.17-2.12-0.2-3.01l-0.79-34.48c-0.14-6.64,2-12.8,5.86-16.9c3.18-3.38,7.4-5.28,11.89-5.35l0.4-0.01
		c4.63,0.27,175.52,10.26,177.47,10.41l0.16,0.01c28.71,0,52.24,13.19,60.03,33.61l1.04,2.73l2.17-1.96
		c10.93-9.89,24.78-15.42,39-15.56l72.58-0.61c9.16,0,17.67,2.67,25.29,7.94l3.49,2.42l-3.17-37.04c-0.07-4.72,1.68-9.19,4.94-12.61
		c3.89-4.19,9.79-6.62,16.21-6.69l44.3-0.35c9.21,0,16.48,4.09,19.93,11.21l1.04,2.14l1.93-1.39c5.98-4.31,12.85-6.52,20.45-6.58
		l76.92-0.65c15.55,0,29.34,10.68,35.98,27.87l0.72,1.86l1.86-0.72c2.3-0.89,4.67-1.35,7.04-1.38l0.49,0.01l187.93,14.62v0.01
		c8.64,0.32,15.43,6.22,17.31,15.01l0.74,3.48l2.59-2.44c11-10.38,25.12-16.23,39.82-16.5l0,0.02l75.18-3.68l0.25-0.02l0.59,0
		c12.95,0,25.02,3.46,34.91,10.01l1.45,0.96l1.15-1.3c1.53-1.72,3.18-3.11,4.91-4.12c3.21-1.95,6.83-2.99,10.5-3.02l0.2,0
		c3.6,0,7.06,0.93,10.28,2.77c3.58,2.01,6.47,4.97,8.35,8.56c1.81,3.41,2.76,7.01,2.85,10.71c0.09,3.83-0.72,7.43-2.39,10.71
		c-1.78,3.72-4.5,6.78-7.91,8.89c-1.71,1.05-3.66,1.88-5.78,2.47l-1.47,0.4v2.21l0.03,0.45l-0.03,0.35
		c-0.93,24.73-1.56,48.27-1.76,66.36c-0.12,11.97-0.1,19.92,0.07,25.79l0.06,2.31l2.27-0.39c5.74-0.98,12.15-2.37,17.59-3.81
		l0.84-0.22l0.8-0.1c0.73-0.1,1.46-0.14,2.17-0.14c3.8,0,7.42,1.29,10.47,3.73c4.35,3.48,7.09,8.94,7.91,15.78l0.02,0l3.64,25.65
		l0.05,0.37c1.4,12.01-5.26,22.1-15.49,23.44l-0.55,0.08h-0.61l-24.74,0.73c-3.32,12.78-23.05,88.22-27.68,92.9
		c-4.77,4.85-11.03,7.54-17.62,7.54h-0.17l-284.15-9.69c-13.94-0.21-25.97-14.02-26-30.14l0.17-52.51L1332.6,1351.39z"/>
	<path class="st0" d="M447.97,1296.77l-166.37,10.33c-16.1,0.14-27.93-7.15-28.19-17.32l0-0.15l0.01-0.15l21.95-221.67
		c-0.18-1.17-2.46-2.13-5.17-2.19c-28.18,8.43-59.36,18.53-64.57,21.56l5.82,244.79c0.26,10.6,13.73,21.9,42.76,21.66l195.29,4.23
		c2.15-0.06,3.95-0.96,4.78-1.83c0.36-0.38,0.45-0.66,0.45-0.76l-1.36-56.19C453.34,1298.53,451.36,1296.8,447.97,1296.77z"/>
	<path class="st0" d="M510.02,1093.63c-0.03-1.19-2.35-2.46-6.08-2.47l-38.41,9.18l-0.27,0c-2.21,0.01-4.35,0.68-5.32,1.68
		c-0.42,0.44-0.42,0.75-0.41,0.86l10.96,232.69c0.07,0.66,2.58,2.62,5.96,2.62l30.46-0.3c2.91-0.02,4.9-1,5.72-1.85
		c0.35-0.36,0.44-0.63,0.44-0.74l0-0.01L510.02,1093.63z"/>
	<path class="st0" d="M706.33,1190.63c-0.13,0-0.25,0-0.38,0l-71.53,7.33c-15.36,0.14-27.9,4.44-35.32,12.1
		c-4.98,5.15-7.41,11.49-7.23,18.85l0.29,12.81c0.03,1.29,2.28,3.26,4.89,3.26l26.77-0.28c1.57-0.01,3.25-0.72,4.31-1.82
		c0.48-0.5,0.76-1.03,0.75-1.42l-0.13-5.3c-0.14-5.44,1.39-9.85,4.54-13.1c3.96-4.1,10.42-6.22,19.18-6.29l11.35-0.1
		c0.12,0,0.23,0,0.35,0c14.96,0,24.8,7.39,25.1,18.9l0.18,8.43c0.1,4.46-1.67,8.7-5.11,12.25c-4.64,4.8-11.9,7.71-19.42,7.79
		l-28.95,0.24c-15.47,0.13-28,4.33-35.28,11.82c-4.96,5.11-7.4,11.56-7.24,19.15l0.52,21.15c0.36,15.47,17.36,34.01,37.98,34.01
		c0.07,0,0.15,0,0.22,0l70.78-4.01c11.54-0.07,22.49-4.58,30.05-12.37c5.76-5.94,8.84-13.05,8.67-20.03l0-0.06l0-0.06l2.71-95.78
		C743.97,1202.37,727.65,1190.63,706.33,1190.63z M710.2,1317.08c-4.56,4.72-11.66,7.36-20,7.44l-16.76,0.18c-0.07,0-0.13,0-0.2,0
		c-15.09,0-25.78-8.03-26.05-19.58l-0.04-2.79c-0.15-5.86,1.54-10.8,4.87-14.25c3.72-3.85,9.32-5.84,16.65-5.9l21.03-0.06
		c0.08,0,0.17,0,0.25,0c17.07,0,24.92,9.81,25.12,19.57l0.06,2.79C715.27,1309.25,713.56,1313.61,710.2,1317.08z"/>
	<path class="st0" d="M1073.27,1176.15c-4.95-7.23-13.74-15.82-27.24-15.72l-72.25,0.64c-14.9,0.12-25.3,7.65-31.4,13.95
		c-9.28,9.58-14.88,22.8-14.62,34.5l0.36,13.83c0.03,1.48,2.41,3.74,5.51,3.74l18.16-0.14c1.74-0.02,3.64-0.83,4.82-2.06
		c0.56-0.59,0.88-1.2,0.86-1.68l-0.11-5.79c-0.14-5.84,1.5-10.57,4.86-14.05c4.24-4.39,11.19-6.68,20.65-6.78l23.21-0.17
		c16.35-0.17,27.05,7.8,27.36,20.29l0.18,9.12c0.13,4.8-1.76,9.37-5.46,13.2c-5,5.17-12.84,8.3-20.97,8.36l-31.33,0.29
		c-13.48,0.09-22.74,2.94-28.32,8.7c-5.17,5.33-7.44,13.28-7.15,25.01l0.54,22.94c0.48,20,10.79,30.04,30.68,29.84l0.11,0
		l76.99,6.71c13.96-0.15,26.49-4.9,34.38-13.05c5.25-5.42,7.95-11.88,7.82-18.68l-7.91-103.92
		C1082.81,1197.75,1080.15,1186.2,1073.27,1176.15z M1048.99,1308.26c-3.06,3.15-7.74,4.7-14.32,4.74l-18.15,0.21
		c-0.12,0-0.25,0-0.37,0c-16.17,0-27.64-8.6-27.94-21l-0.07-3.09c-0.12-5.12,1.72-9.79,5.31-13.5c4.95-5.12,12.78-7.98,22.04-8.07
		l18.62-0.11c0.13,0,0.27,0,0.4,0c18.25,0,18.56,11.66,18.82,21.04l0.08,3.03C1053.55,1297.41,1053.13,1304,1048.99,1308.26z"/>
	<path class="st0" d="M1257.6,1118.83c-0.06,0-0.12,0-0.19,0l-76.65,0.63c-5.73,0.06-10.61,2.13-14.51,6.16
		c-6.02,6.22-9.17,16.64-8.88,29.35l1.23,50.81c0.52,21.49,10.33,35.29,25.08,35.17l69.61-0.61c5.5-0.05,11.02-2.65,15.54-7.31
		c6.18-6.38,9.6-15.65,9.39-25.42l0-0.11l0.01-0.11l3.81-55.96C1281.59,1133.1,1270.89,1118.83,1257.6,1118.83z M1237.29,1189.18
		c-4.15,4.32-10.78,7.37-16.11,7.43l-19.63,0.16c-0.04,0-0.09,0-0.13,0c-8.72,0-14.3-7.27-14.58-19l-0.29-13.4
		c-0.17-6.41,1.43-11.56,4.64-14.88c2.39-2.48,5.58-3.8,9.21-3.82l26.69-0.28c0.02,0,0.04,0,0.06,0c8.35,0,14.59,8.13,14.87,19.36
		l0.22,12.48C1242.36,1181.55,1240.65,1185.68,1237.29,1189.18z"/>
	<path class="st0" d="M1497.13,1296.16c-0.01-0.49-0.38-1.11-1.01-1.71c-1.34-1.29-3.6-2.24-5.3-2.24c-0.03,0-0.06,0-0.09,0
		l-87.24,0.76c-7.7-0.2-11.23-4.17-12-7.81c-0.93-4.43,1.78-8.85,6.91-11.26l87.23-41.58c6.54-3.32,9.76-9.3,9.53-17.76v-0.01
		l-1.17-49.45c-0.13-4.02-2.17-4-3.25-3.99l-0.1,0l-0.1-0.01l-187.32-14.63c-2.38,0.08-4.76,2.09-4.74,4.04l0,0.16l-0.02,0.16
		l-6.84,53.56c0.17,1.93,2.68,3.9,5.02,3.87l145.74-1.25c5.64-0.08,9.93,2.51,10.89,6.57c0.73,3.07-0.57,7.37-6.39,10.21l-0.15,0.07
		l-95.8,38.73c-6.7,3.07-8.8,7.01-8.6,16.18l4.07,55.39c0.04,2.05,2.7,4.37,5,4.37c0.01,0,0.01,0,0.02,0l140.42-1.22
		c1.56-0.01,3.73-1.06,5.05-2.42c0.68-0.7,1.08-1.44,1.06-1.96L1497.13,1296.16z"/>
	<path class="st0" d="M399.08,1144.52l-0.1,0l-66.93-5.31c-18.25,0.18-33.07,4.79-40.67,12.66c-3.93,4.07-5.85,8.86-5.72,14.24
		l0,0.17l-11.4,93.27c0.46,17.14,9.37,25.19,30.7,27.72l97.77-9.7c21.9-1.05,43.8-10.59,43.33-29.56l0.88-77.42
		C446.55,1154.55,427.81,1144.28,399.08,1144.52z M413.65,1235.12c0.06,3.73-1.45,7.29-4.37,10.31c-4.91,5.08-13.14,8.04-22.6,8.12
		l-12.72,0.15c-0.17,0-0.34,0-0.51,0c-21.79,0-26.55-8.24-26.69-15.18l-1.06-44.39c-0.1-3.99,1.29-7.59,4.02-10.41
		c4.46-4.61,12.23-7.09,22.48-7.17l19.57-0.19c16.01-0.12,26.09,6.43,26.33,17.09l0,0.15L413.65,1235.12z"/>
	<path class="st0" d="M576.75,1147.94c-0.04-1.22-2.47-2.53-6.38-2.51l-0.09,0l-35.99-2.61c-2.14,0.03-4.28,0.73-5.23,1.72
		c-0.4,0.42-0.39,0.69-0.38,0.8l-0.44,209.34c0.11,0.63,2.57,2.48,5.88,2.48c0.01,0,0.01,0,0.02,0l38.63-0.35
		c2.9,0,4.89-1,5.73-1.85c0.35-0.36,0.44-0.62,0.44-0.71l0-0.02L576.75,1147.94z"/>
	<path class="st0" d="M1137.14,1114.1l-44.09,0.34c-1.61,0.03-3.2,0.46-4.34,1.17c-0.62,0.39-1.35,1.02-1.37,1.84l18.77,216.88
		c0.02,0.89,2.64,3.05,5.94,3.03l30.44-0.29c2.77-0.02,4.71-1.01,5.6-1.92c0.39-0.41,0.61-0.82,0.61-1.15l-5.17-216.91
		C1143.47,1115.34,1140.77,1114.07,1137.14,1114.1z"/>
	<path class="st0" d="M1277.32,1251.62l-58.64,0.51c-20.32,0.17-35.97,4.41-42.95,11.63c-2.54,2.62-3.78,5.57-3.7,8.75l0,0.17
		l-6.82,58.47c0.6,16.26,23.13,21.84,44.11,21.63l79.08-0.64c15.94-0.16,42.73-3.41,43.36-23.28l-6.79-57.23
		C1321.4,1257.95,1305.75,1251.39,1277.32,1251.62z M1288.78,1315.79c-0.99,11.84-13.48,11.99-24.49,12.12l-25.98,0.2
		c-1.3,0.01-2.54,0.02-3.74,0.02c-7.04,0-12.25-0.42-15.52-3.64c-1.98-1.95-2.95-4.68-2.98-8.35l0-0.28l0.06-0.27l6.58-28.24
		c0.03-2.2,0.9-4.24,2.53-5.93c4.64-4.8,14.31-5.9,21.6-5.98l17.49-0.16c0.2,0,0.39,0,0.58,0c21.31,0,23.14,8.98,23.19,11.76
		l0.68,28.62L1288.78,1315.79z"/>
	<path class="st0" d="M870.75,1142.23l-0.08,0l-0.08,0l-177.09-10.39c-0.2,0.01-0.49,0.08-0.86,0.46c-0.99,1.01-1.59,3.2-1.53,5.57
		l0.8,34.46c0.08,3.65,1.25,6.42,2.73,6.53l53.95-6.39c3.2-0.03,6.27,2.19,8.29,6.09l0.27,0.53l-2.94,198.46
		c0.09,1.71,2.53,3.06,5.46,3l31.85-0.29c2.32-0.02,4.17-0.57,5.08-1.51c0.4-0.41,0.59-0.88,0.6-1.47l-6.82-58.63
		c-0.05-2.4,0.9-4.67,2.75-6.58c2.95-3.04,7.98-4.88,13.47-4.93l0.11,0l73.76,6.36c13.17-0.11,27.61-1.25,35.06-8.86
		c4.07-4.16,6-10.03,5.89-17.95l-2.64-112.1C918.27,1155.59,898.09,1141.98,870.75,1142.23z M883.95,1277.05
		c-4.32,4.48-11.19,7-19.34,7.08l-18.2,0.14c-0.15,0-0.31,0-0.46,0c-15.11,0-26.62-8.07-26.84-18.91l-1.56-64.96
		c-0.1-4.09,1.48-7.95,4.59-11.16c4.83-4.99,12.8-7.9,21.88-7.98l18.19-0.17c14.74-0.09,24.76,7.4,25.01,18.66l1.54,64.93
		C888.89,1269.38,887.22,1273.66,883.95,1277.05z"/>
	<path class="st0" d="M1713.85,1328.42l-3.67-25.94c-0.29-2.51-1.08-4.46-2.1-5.26c-0.34-0.26-0.67-0.38-1.04-0.36
		c-12.04,3.15-32.63,7.71-36.88,3.4c-1.19-1.24-3.13-3.27-2.07-57.17c0.5-25.49,1.47-50.83,1.53-52.39
		c-0.47-19.42-18.57-33.89-42.07-33.68l-74.84,3.66c-15.16,0.13-25.49,7.56-31.5,13.77c-9.41,9.72-14.83,23.2-14.51,36.05
		l0.29,15.44c0.06,1.95,2.69,4.44,5.53,4.38l26.36-0.26c1.6,0,3.31-0.76,4.49-1.97c0.77-0.79,1.2-1.67,1.18-2.42l-0.19-7.48
		c-0.17-7.64-0.3-13.67,3.49-17.56c2.7-2.77,7.11-4.09,13.87-4.13l23.2-0.26c0.09,0,0.18,0,0.27,0c16.14,0,26.79,8.77,27.15,22.41
		l0.19,10.13c0.09,3.63-0.81,6.35-2.77,8.31c-3.69,3.7-10.15,3.54-17.62,3.36c-1.7-0.04-3.46-0.08-5.24-0.08c-0.33,0-0.67,0-1,0
		l-31.38,0.25c-15.97,0.13-29.17,4.77-37.18,13.05c-6.23,6.45-9.27,14.77-9.02,24.75l0.57,25.55c0.44,18.47,18.92,33.38,41.27,33.38
		c0.14,0,0.27,0,0.4,0l76.79-0.68c0.13,0,0.25,0,0.36-0.01c0.24-0.01,0.47-0.01,0.76-0.01l83.49-2.5c0.23-0.04,0.54-0.16,0.9-0.61
		C1713.72,1332.49,1714.1,1330.48,1713.85,1328.42z M1634.38,1305.37c-4.92,5.09-12.32,7.94-20.83,8.02l-18.17,0.12
		c-0.1,0-0.21,0-0.31,0c-16.24,0-27.74-9.47-28.03-23.1l-0.09-3.35c-0.15-6,1.91-11.39,5.96-15.58c4.97-5.14,12.54-8.02,21.33-8.09
		l18.63-0.17c18.55-0.16,27.15,11.5,27.38,23.1l0.14,3.33C1640.54,1295.72,1638.46,1301.14,1634.38,1305.37z"/>
	<path class="st0" d="M1679.21,1170.96l-0.06-4.02l0.83,0.01c0.52-0.02,0.9,0.09,1.17,0.33c0.37,0.29,0.9,1,1.54,2.19l0.8,1.47h1.77
		l-1.12-1.83c-0.52-0.89-0.98-1.52-1.34-1.89c-0.23-0.23-0.46-0.34-0.76-0.5c0.75-0.07,1.38-0.37,1.83-0.91
		c0.44-0.5,0.64-1.13,0.64-1.83c-0.02-0.49-0.18-0.94-0.44-1.4c-0.32-0.44-0.7-0.75-1.16-0.91c-0.45-0.17-1.22-0.26-2.28-0.25
		l-3.02,0.02l0.22,9.6L1679.21,1170.96z M1680.73,1162.69c0.64,0,1.19,0.06,1.42,0.17c0.24,0.14,0.45,0.27,0.59,0.5
		c0.17,0.21,0.26,0.49,0.26,0.75c0.01,0.47-0.16,0.78-0.45,1.04c-0.29,0.29-0.83,0.43-1.71,0.45l-1.73,0.01l-0.08-2.92H1680.73z"/>
	<path class="st0" d="M1677.41,1173.82c1.31,0.74,2.71,1.11,4.11,1.11c1.42,0,2.79-0.4,4.06-1.17c1.3-0.79,2.29-1.92,2.95-3.33
		c0.72-1.43,1-2.9,0.98-4.44c-0.01-1.57-0.41-3-1.17-4.42c-0.76-1.47-1.85-2.53-3.17-3.27c-1.34-0.76-2.68-1.15-4.04-1.15
		c-1.37,0-2.73,0.45-4.04,1.18c-1.3,0.81-2.26,1.94-2.98,3.33c-0.72,1.47-1.02,2.95-1.02,4.48c0.01,1.5,0.47,2.98,1.19,4.4
		C1675.04,1171.94,1676.08,1173.01,1677.41,1173.82z M1675.31,1162.38c0.59-1.19,1.39-2.11,2.49-2.75c1.09-0.68,2.18-0.99,3.33-0.99
		c1.16-0.01,2.27,0.29,3.4,0.92c1.1,0.64,2.01,1.55,2.6,2.74c0.67,1.17,1,2.39,1.06,3.69c0.01,1.3-0.29,2.51-0.84,3.7
		c-0.55,1.19-1.34,2.12-2.48,2.77c-1.05,0.68-2.18,1.01-3.35,1.01c-1.2,0-2.36-0.3-3.46-0.97c-1.12-0.63-1.98-1.53-2.62-2.7
		c-0.62-1.17-0.96-2.41-0.96-3.69C1674.41,1164.84,1674.71,1163.59,1675.31,1162.38z"/>
	<g>
		<path class="st0" d="M1353.97,1418.47v-55.69h26.05c6.45,0,11.3,1.19,14.55,3.58c3.25,2.39,4.88,5.94,4.88,10.67
			c0,5.35-2.31,9.29-6.94,11.84c5.67,2.55,8.5,6.95,8.5,13.2c0,5.26-1.87,9.31-5.62,12.15c-3.74,2.84-9.1,4.26-16.07,4.26H1353.97z
			 M1377.05,1383.92c1.98,0,3.41-0.32,4.29-0.98c0.88-0.65,1.33-1.73,1.33-3.24c0-1.51-0.44-2.59-1.33-3.24
			c-0.88-0.65-2.31-0.98-4.29-0.98h-6.94v8.42H1377.05z M1377.44,1405.76c2.39,0,4.12-0.4,5.19-1.21c1.06-0.81,1.6-2.09,1.6-3.86
			c0-1.87-0.53-3.2-1.6-3.98c-1.07-0.78-2.8-1.17-5.19-1.17h-7.33v10.22H1377.44z"/>
		<path class="st0" d="M1441.32,1418.47l-8.89-17.86h-6.24v17.86h-16.61v-55.69h23.87c7.44,0,13.06,1.53,16.89,4.6
			c3.82,3.07,5.73,7.62,5.73,13.65c0,7.18-2.73,12.53-8.19,16.07l11.54,21.37H1441.32z M1432.12,1387.74c2.55,0,4.41-0.47,5.58-1.4
			c1.17-0.94,1.76-2.44,1.76-4.52c0-2.08-0.58-3.59-1.76-4.52c-1.17-0.94-3.03-1.4-5.58-1.4h-5.93v11.86H1432.12z"/>
		<path class="st0" d="M1504.11,1418.47l-2.5-8.97h-17.63l-2.42,8.97h-17.47l18.1-55.69h21.84l17.94,55.69H1504.11z M1492.8,1377.21
			l-5.07,18.49h10.14L1492.8,1377.21z"/>
		<path class="st0" d="M1545.3,1396.71c-6.4-1.25-11.09-3.25-14.08-6.01c-2.99-2.76-4.48-6.45-4.48-11.08
			c0-5.77,2.08-10.26,6.24-13.45c4.16-3.2,10.01-4.8,17.55-4.8c7.07,0,12.64,1.5,16.69,4.48c4.06,2.99,6.34,7.24,6.86,12.75
			l-17.24,1.56c-0.47-1.98-1.21-3.35-2.22-4.13s-2.56-1.17-4.64-1.17c-1.98,0-3.47,0.31-4.48,0.94s-1.52,1.51-1.52,2.65
			c0,0.94,0.39,1.69,1.17,2.26c0.78,0.57,2.08,1.04,3.9,1.4l7.49,1.56c6.6,1.4,11.36,3.45,14.27,6.12
			c2.91,2.68,4.37,6.38,4.37,11.11c0,6.14-2.12,10.83-6.36,14.08c-4.24,3.25-10.36,4.88-18.37,4.88c-7.75,0-13.72-1.66-17.9-4.99
			c-4.19-3.33-6.51-8.29-6.98-14.9h17.47c0.31,2.18,1.16,3.8,2.54,4.84c1.38,1.04,3.37,1.56,5.97,1.56c4.21,0,6.32-1.38,6.32-4.13
			c0-1.09-0.38-1.95-1.13-2.57c-0.75-0.62-2.04-1.12-3.86-1.48L1545.3,1396.71z"/>
		<path class="st0" d="M1583.68,1418.47v-55.69h17.71v55.69H1583.68z"/>
		<path class="st0" d="M1612.3,1418.47v-55.69h17.71v40.48h23.32l-1.48,15.21H1612.3z"/>
	</g>
</g>
</svg>
